# Blender v2.79 (sub 0) OBJ File: 'flag.blend'
# www.blender.org
mtllib flag.mtl
o Sphere
v 0.000000 0.096366 -0.096366
v 0.000000 0.052153 -0.125908
v 0.014336 0.125908 -0.034668
v 0.036816 0.096366 -0.089031
v 0.048102 0.052153 -0.116324
v 0.052066 -0.000000 -0.125908
v 0.026489 0.125908 -0.026533
v 0.068027 0.096366 -0.068141
v 0.088881 0.052153 -0.089031
v 0.096205 -0.000000 -0.096366
v 0.034610 0.125908 -0.014360
v 0.088881 0.096366 -0.036878
v 0.116129 0.052153 -0.048183
v 0.125697 -0.000000 -0.052153
v 0.037461 0.125908 -0.000000
v 0.096205 0.096366 -0.000000
v 0.125697 0.052153 -0.000000
v 0.136054 -0.000000 -0.000000
v 0.034610 0.125908 0.014360
v 0.088881 0.096366 0.036878
v 0.116129 0.052153 0.048183
v 0.125697 -0.000000 0.052153
v 0.026489 0.125908 0.026533
v 0.068027 0.096366 0.068141
v 0.088881 0.052153 0.089031
v 0.096205 -0.000000 0.096366
v 0.014336 0.125908 0.034668
v 0.036816 0.096366 0.089031
v 0.048102 0.052153 0.116324
v 0.052065 -0.000000 0.125908
v -0.000000 0.125908 0.037524
v -0.000000 0.096366 0.096366
v -0.000000 0.052153 0.125908
v -0.000000 -0.000000 0.136282
v -0.014336 0.125908 0.034668
v -0.036816 0.096366 0.089031
v -0.048102 0.052153 0.116324
v -0.052066 -0.000000 0.125908
v -0.026489 0.125908 0.026533
v -0.068027 0.096366 0.068141
v -0.088881 0.052153 0.089031
v -0.096205 -0.000000 0.096366
v -0.034610 0.125908 0.014360
v -0.088881 0.096366 0.036878
v -0.116129 0.052153 0.048183
v -0.125697 -0.000000 0.052153
v -0.037461 0.125908 -0.000000
v -0.096205 0.096366 -0.000000
v -0.125697 0.052153 -0.000000
v -0.136054 -0.000000 -0.000000
v -0.034610 0.125908 -0.014360
v -0.088881 0.096366 -0.036878
v -0.116129 0.052153 -0.048183
v -0.125697 -0.000000 -0.052153
v -0.026489 0.125908 -0.026533
v -0.068027 0.096366 -0.068141
v -0.088881 0.052153 -0.089031
v -0.096204 -0.000000 -0.096366
v -0.014336 0.125908 -0.034668
v -0.036816 0.096366 -0.089031
v -0.048102 0.052153 -0.116324
v -0.052065 -0.000000 -0.125908
v 0.014336 1.251589 -0.034668
v 0.000000 0.125908 -0.037524
v 0.000000 -0.000000 -0.136282
v 0.028370 0.111137 -0.068607
v 0.052421 0.111137 -0.052509
v 0.068492 0.111137 -0.028418
v 0.074135 0.111137 -0.000000
v 0.068492 0.111137 0.028418
v 0.052421 0.111137 0.052509
v 0.028370 0.111137 0.068607
v -0.000000 0.111137 0.074259
v -0.028370 0.111137 0.068607
v -0.052421 0.111137 0.052509
v -0.068492 0.111137 0.028418
v -0.074135 0.111137 -0.000000
v -0.068492 0.111137 -0.028418
v -0.052421 0.111137 -0.052509
v -0.028370 0.111137 -0.068607
v 0.000000 0.111137 -0.074260
v 0.014336 1.746616 -0.034668
v 0.000000 1.251589 -0.037524
v -0.014336 1.251589 -0.034668
v -0.026489 1.251589 -0.026533
v -0.034610 1.251589 -0.014360
v -0.037461 1.251589 -0.000000
v -0.034610 1.251589 0.014360
v -0.026489 1.251589 0.026533
v -0.014336 1.251589 0.034668
v -0.000000 1.251589 0.037524
v 0.014336 1.251589 0.034668
v 0.026489 1.251589 0.026533
v 0.034610 1.251589 0.014360
v 0.037461 1.251589 -0.000000
v 0.034610 1.251589 -0.014360
v 0.026489 1.251589 -0.026533
v 0.000000 1.746616 -0.037524
v -0.014336 1.746616 -0.034668
v -0.026489 1.746616 -0.026533
v -0.034610 1.746616 -0.014360
v -0.037461 1.746616 -0.000000
v -0.034610 1.746616 0.014360
v -0.026489 1.746616 0.026533
v -0.014336 1.746616 0.034668
v -0.000000 1.746616 0.037524
v 0.014336 1.746616 0.034668
v 0.026489 1.746616 0.026533
v 0.034610 1.746616 0.014360
v 0.037461 1.746616 -0.000000
v 0.034610 1.746616 -0.014360
v 0.026489 1.746616 -0.026533
v 0.871735 1.251589 0.014360
v 0.874586 1.251589 -0.000000
v 0.874586 1.746616 -0.000000
v 0.871735 1.746616 0.014360
vn 0.1634 0.5481 -0.8203
vn -0.8319 0.0000 -0.5549
vn 0.1918 0.1915 -0.9626
vn 0.0741 0.9253 -0.3720
vn 0.5459 0.1914 -0.8157
vn 0.2111 0.9252 -0.3154
vn 0.4653 0.5479 -0.6952
vn -0.5562 0.0000 0.8310
vn 0.6960 0.5477 -0.4643
vn -0.5562 0.0000 -0.8310
vn 0.8165 0.1913 -0.5447
vn 0.3159 0.9251 -0.2107
vn 0.8208 0.5475 -0.1630
vn 0.1954 0.0000 -0.9807
vn 0.9628 0.1912 -0.1912
vn 0.3726 0.9250 -0.0740
vn 0.9628 0.1912 0.1912
vn 0.3726 0.9250 0.0740
vn 0.8208 0.5475 0.1630
vn -0.9808 0.0000 0.1948
vn 0.8165 0.1913 0.5447
vn 0.3159 0.9251 0.2107
vn 0.6960 0.5477 0.4643
vn 0.5562 0.0000 -0.8310
vn 0.4653 0.5479 0.6952
vn 0.8319 0.0000 -0.5549
vn 0.5459 0.1914 0.8157
vn 0.2111 0.9252 0.3154
vn 0.1634 0.5481 0.8203
vn 0.9808 0.0000 -0.1948
vn 0.1918 0.1915 0.9626
vn 0.0741 0.9253 0.3720
vn -0.1918 0.1915 0.9626
vn -0.0741 0.9253 0.3720
vn -0.1634 0.5481 0.8203
vn 0.9808 0.0000 0.1948
vn -0.2111 0.9252 0.3154
vn -0.4653 0.5479 0.6952
vn 0.8319 0.0000 0.5549
vn -0.5459 0.1914 0.8157
vn -0.6960 0.5477 0.4643
vn 0.5562 0.0000 0.8310
vn -0.8165 0.1913 0.5447
vn -0.3159 0.9251 0.2107
vn -0.1954 0.0000 -0.9807
vn -0.9628 0.1912 0.1912
vn -0.3726 0.9250 0.0740
vn -0.8208 0.5475 0.1630
vn -0.9628 0.1912 -0.1912
vn -0.3726 0.9250 -0.0740
vn -0.8208 0.5475 -0.1630
vn -0.1954 0.0000 0.9807
vn -0.6960 0.5477 -0.4643
vn 0.1954 0.0000 0.9807
vn -0.8165 0.1913 -0.5447
vn -0.3159 0.9251 -0.2107
vn -0.4653 0.5479 -0.6952
vn -0.8319 0.0000 0.5549
vn 0.0000 -1.0000 0.0000
vn -0.5459 0.1914 -0.8157
vn -0.2111 0.9252 -0.3154
vn -0.1918 0.1915 -0.9626
vn -0.0741 0.9253 -0.3720
vn -0.1634 0.5481 -0.8203
vn -0.9808 0.0000 -0.1948
vn -0.1100 0.8264 -0.5522
vn -0.3133 0.8263 -0.4681
vn -0.4688 0.8261 -0.3127
vn -0.5529 0.8260 -0.1098
vn -0.5529 0.8260 0.1098
vn -0.4688 0.8261 0.3127
vn -0.3133 0.8263 0.4681
vn -0.1100 0.8264 0.5522
vn 0.1100 0.8264 0.5522
vn 0.3133 0.8263 0.4681
vn 0.4688 0.8261 0.3127
vn 0.5529 0.8260 0.1098
vn 0.5529 0.8260 -0.1098
vn 0.4688 0.8261 -0.3127
vn 0.3133 0.8263 -0.4681
vn 0.1100 0.8264 -0.5522
vn 0.0000 1.0000 0.0000
vn 0.0000 0.0000 -1.0000
vn 0.0000 0.0000 1.0000
usemtl None
s off
f 2//1 1//1 4//1 5//1
f 55//2 51//2 86//2 85//2
f 65//3 2//3 5//3 6//3
f 81//4 64//4 3//4 66//4
f 6//5 5//5 9//5 10//5
f 66//6 3//6 7//6 67//6
f 5//7 4//7 8//7 9//7
f 39//8 35//8 90//8 89//8
f 9//9 8//9 12//9 13//9
f 59//10 55//10 85//10 84//10
f 10//11 9//11 13//11 14//11
f 67//12 7//12 11//12 68//12
f 13//13 12//13 16//13 17//13
f 3//14 64//14 83//14 63//14
f 14//15 13//15 17//15 18//15
f 68//16 11//16 15//16 69//16
f 18//17 17//17 21//17 22//17
f 69//18 15//18 19//18 70//18
f 17//19 16//19 20//19 21//19
f 47//20 43//20 88//20 87//20
f 22//21 21//21 25//21 26//21
f 70//22 19//22 23//22 71//22
f 21//23 20//23 24//23 25//23
f 7//24 3//24 63//24 97//24
f 25//25 24//25 28//25 29//25
f 11//26 7//26 97//26 96//26
f 26//27 25//27 29//27 30//27
f 71//28 23//28 27//28 72//28
f 29//29 28//29 32//29 33//29
f 15//30 11//30 96//30 95//30
f 30//31 29//31 33//31 34//31
f 72//32 27//32 31//32 73//32
f 34//33 33//33 37//33 38//33
f 73//34 31//34 35//34 74//34
f 33//35 32//35 36//35 37//35
f 19//36 15//36 95//36 94//36
f 74//37 35//37 39//37 75//37
f 37//38 36//38 40//38 41//38
f 23//39 19//39 94//39 93//39
f 38//40 37//40 41//40 42//40
f 41//41 40//41 44//41 45//41
f 27//42 23//42 93//42 92//42
f 42//43 41//43 45//43 46//43
f 75//44 39//44 43//44 76//44
f 64//45 59//45 84//45 83//45
f 46//46 45//46 49//46 50//46
f 76//47 43//47 47//47 77//47
f 45//48 44//48 48//48 49//48
f 50//49 49//49 53//49 54//49
f 77//50 47//50 51//50 78//50
f 49//51 48//51 52//51 53//51
f 35//52 31//52 91//52 90//52
f 53//53 52//53 56//53 57//53
f 31//54 27//54 92//54 91//54
f 54//55 53//55 57//55 58//55
f 78//56 51//56 55//56 79//56
f 57//57 56//57 60//57 61//57
f 43//58 39//58 89//58 88//58
f 6//59 10//59 14//59 18//59 22//59 26//59 30//59 34//59 38//59 42//59 46//59 50//59 54//59 58//59 62//59 65//59
f 58//60 57//60 61//60 62//60
f 79//61 55//61 59//61 80//61
f 62//62 61//62 2//62 65//62
f 80//63 59//63 64//63 81//63
f 61//64 60//64 1//64 2//64
f 51//65 47//65 87//65 86//65
f 60//66 80//66 81//66 1//66
f 56//67 79//67 80//67 60//67
f 52//68 78//68 79//68 56//68
f 48//69 77//69 78//69 52//69
f 44//70 76//70 77//70 48//70
f 40//71 75//71 76//71 44//71
f 36//72 74//72 75//72 40//72
f 32//73 73//73 74//73 36//73
f 28//74 72//74 73//74 32//74
f 24//75 71//75 72//75 28//75
f 20//76 70//76 71//76 24//76
f 16//77 69//77 70//77 20//77
f 12//78 68//78 69//78 16//78
f 8//79 67//79 68//79 12//79
f 4//80 66//80 67//80 8//80
f 1//81 81//81 66//81 4//81
f 93//39 94//39 109//39 108//39
f 87//20 88//20 103//20 102//20
f 110//82 109//82 116//82 115//82
f 63//14 83//14 98//14 82//14
f 95//30 96//30 111//30 110//30
f 88//58 89//58 104//58 103//58
f 83//45 84//45 99//45 98//45
f 96//26 97//26 112//26 111//26
f 89//8 90//8 105//8 104//8
f 90//52 91//52 106//52 105//52
f 85//2 86//2 101//2 100//2
f 97//24 63//24 82//24 112//24
f 91//54 92//54 107//54 106//54
f 86//65 87//65 102//65 101//65
f 84//10 85//10 100//10 99//10
f 92//42 93//42 108//42 107//42
f 113//36 114//36 115//36 116//36
f 94//59 95//59 114//59 113//59
f 95//83 110//83 115//83 114//83
f 109//84 94//84 113//84 116//84
