# Blender v2.79 (sub 0) OBJ File: 'boat.blend'
# www.blender.org
mtllib boat.mtl
o Cube_Cube.001
v -0.082648 -0.050000 0.500000
v -0.082648 0.050000 0.500000
v -0.125000 -0.050000 0.271719
v -0.125000 0.050000 0.271719
v -0.125000 0.050000 -0.219444
v -0.125000 -0.050000 -0.219444
v -0.097658 0.050000 -0.317555
v -0.097658 -0.050000 -0.317555
v -0.064823 0.050000 -0.404846
v -0.064823 -0.050000 -0.404846
v -0.068266 0.050000 0.446590
v -0.090800 0.050000 0.325128
v -0.068266 0.136302 0.446590
v -0.090800 0.136302 0.325128
v -0.082648 0.071496 0.500000
v -0.125000 0.071496 0.271719
v -0.125000 0.071496 -0.219444
v -0.097658 0.071496 -0.317555
v -0.064823 0.071496 -0.404846
v 0.082648 -0.050000 0.500000
v 0.082648 0.050000 0.500000
v 0.000000 -0.050000 -0.500000
v 0.000000 0.050000 -0.500000
v 0.125000 -0.050000 0.271719
v 0.125000 0.050000 0.271719
v 0.125000 0.050000 -0.219444
v 0.125000 -0.050000 -0.219444
v 0.000000 -0.050000 0.500000
v 0.000000 0.050000 0.500000
v 0.000000 0.050000 0.271719
v 0.000000 -0.050000 0.271719
v 0.000000 -0.050000 -0.219444
v 0.000000 0.050000 -0.219444
v 0.097658 0.050000 -0.317555
v 0.097658 -0.050000 -0.317555
v 0.064823 0.050000 -0.404846
v 0.064823 -0.050000 -0.404846
v 0.000000 0.050000 -0.324741
v 0.000000 0.050000 -0.403719
v 0.000000 -0.050000 -0.313590
v 0.000000 -0.050000 -0.395664
v 0.000000 0.050000 0.446590
v 0.068266 0.050000 0.446590
v 0.090800 0.050000 0.325128
v 0.000000 0.050000 0.325128
v 0.000000 0.136302 0.446590
v 0.068266 0.136302 0.446590
v 0.090800 0.136302 0.325128
v 0.000000 0.136302 0.325128
v 0.082648 0.071496 0.500000
v 0.000000 0.071496 -0.500000
v 0.125000 0.071496 0.271719
v 0.125000 0.071496 -0.219444
v 0.000000 0.071496 0.500000
v 0.097658 0.071496 -0.317555
v 0.064823 0.071496 -0.404846
vn -0.8265 0.0000 -0.5630
vn 0.0000 0.0000 1.0000
vn 0.0000 1.0000 0.0000
vn -0.9832 0.0000 0.1824
vn -1.0000 0.0000 0.0000
vn 0.0000 -1.0000 0.0000
vn -0.9633 0.0000 -0.2685
vn -0.9360 0.0000 -0.3521
vn 0.0000 0.0000 -1.0000
vn 0.8265 0.0000 -0.5630
vn 0.9832 0.0000 0.1824
vn 1.0000 0.0000 0.0000
vn 0.9633 0.0000 -0.2685
vn 0.9360 0.0000 -0.3521
usemtl None
s off
f 10//1 9//1 23//1 22//1
f 28//2 29//2 2//2 1//2
f 30//3 4//3 12//3 45//3
f 33//3 5//3 4//3 30//3
f 1//4 2//4 4//4 3//4
f 3//5 4//5 5//5 6//5
f 6//6 32//6 31//6 3//6
f 3//6 31//6 28//6 1//6
f 6//7 5//7 7//7 8//7
f 8//8 7//8 9//8 10//8
f 38//3 7//3 5//3 33//3
f 39//3 9//3 7//3 38//3
f 23//3 9//3 39//3
f 10//6 22//6 41//6
f 10//6 41//6 40//6 8//6
f 8//6 40//6 32//6 6//6
f 45//9 12//9 14//9 49//9
f 4//3 2//3 11//3 12//3
f 2//3 29//3 42//3 11//3
f 49//3 14//3 13//3 46//3
f 11//2 42//2 46//2 13//2
f 12//4 11//4 13//4 14//4
f 5//5 4//5 16//5 17//5
f 5//7 17//7 18//7 7//7
f 2//4 15//4 16//4 4//4
f 7//8 18//8 19//8 9//8
f 29//2 54//2 15//2 2//2
f 9//1 19//1 51//1 23//1
f 37//10 22//10 23//10 36//10
f 28//2 20//2 21//2 29//2
f 30//3 45//3 44//3 25//3
f 33//3 30//3 25//3 26//3
f 20//11 24//11 25//11 21//11
f 24//12 27//12 26//12 25//12
f 27//6 24//6 31//6 32//6
f 24//6 20//6 28//6 31//6
f 27//13 35//13 34//13 26//13
f 35//14 37//14 36//14 34//14
f 38//3 33//3 26//3 34//3
f 39//3 38//3 34//3 36//3
f 23//3 39//3 36//3
f 37//6 41//6 22//6
f 37//6 35//6 40//6 41//6
f 35//6 27//6 32//6 40//6
f 45//9 49//9 48//9 44//9
f 25//3 44//3 43//3 21//3
f 21//3 43//3 42//3 29//3
f 49//3 46//3 47//3 48//3
f 43//2 47//2 46//2 42//2
f 44//11 48//11 47//11 43//11
f 26//12 53//12 52//12 25//12
f 26//13 34//13 55//13 53//13
f 21//11 25//11 52//11 50//11
f 34//14 36//14 56//14 55//14
f 29//2 21//2 50//2 54//2
f 36//10 23//10 51//10 56//10
